<?xml version="1.0" standalone="no"?>
<!DOCTYPE svg PUBLIC "-//W3C//DTD SVG 1.0//EN" "http://www.w3.org/TR/2001/REC-SVG-20010904/DTD/svg10.dtd">
<svg xmlns="http://www.w3.org/2000/svg" xmlns:xlink="http://www.w3.org/1999/xlink" id="body_1" width="20" height="15">

<g transform="matrix(0.625 0 0 0.625 2.5 -0)">
    <path d="M24 12C 24 15.313708 22.828426 18.142136 20.485281 20.485281C 18.142136 22.828426 15.313708 24 12 24C 8.686292 24 5.857865 22.828426 3.514719 20.485281C 1.171573 18.142136 0 15.313708 0 12C 0 8.686292 1.171573 5.857865 3.514719 3.514719C 5.857865 1.171573 8.686292 0 12 0C 15.313708 0 18.142136 1.171573 20.485281 3.514719C 22.828426 5.857865 24 8.686292 24 12C 24 12.139641 23.997564 12.279239 23.992691 12.418794" stroke="none" fill="#C45AC0" fill-rule="nonzero" />
	<g>
        <path d="M6.3 5.3L9.6 5.3L9.6 10.1L14.200001 5.3L18.2 5.3L13 10.7L18.4 18.7L14.5 18.7L10.6 12.900001L9.5 14.1L9.5 18.7L6.3 18.7C 6.3 18.7 6.3 5.3 6.3 5.3z" stroke="none" fill="#FFFFFF" fill-rule="nonzero" />
	</g>
</g>
</svg>